<svg xmlns="http://www.w3.org/2000/svg" version="1.0" width="75.000000pt" height="132.000000pt" viewBox="0 0 75.000000 132.000000" preserveAspectRatio="xMidYMid meet">

<g transform="translate(0.000000,132.000000) scale(0.100000,-0.100000)" fill="#0000ff" stroke="none">
<path d="M342 1160 c-120 -18 -227 -103 -257 -205 -20 -71 -19 -114 6 -179 27 -74 84 -134 204 -214 117 -79 146 -120 124 -174 -14 -35 -60 -58 -115 -58 -34 0 -36 2 -30 26 5 18 3 25 -5 22 -7 -2 -32 -49 -55 -103 -23 -55 -47 -101 -53 -103 -20 -7 -36 45 -22 74 14 32 4 52 -15 27 -17 -22 -18 -67 -2 -96 11 -22 37 -46 49 -47 4 0 24 41 45 90 l38 90 54 0 c48 0 91 15 161 58 2 1 -1 12 -7 25 -6 12 -13 34 -16 48 -9 42 -43 76 -135 138 -160 108 -214 182 -213 295 1 104 53 185 150 233 53 26 65 28 184 28 70 0 124 3 119 8 -8 8 -124 28 -146 26 -5 -1 -34 -5 -63 -9z" fill="#0000ff"/>
<path d="M559 1057 l-35 -82 -70 0 c-46 0 -82 -6 -105 -17 -19 -9 -41 -19 -50 -22 -15 -4 -15 -9 1 -58 20 -63 51 -96 145 -157 140 -90 202 -168 212 -264 12 -118 -59 -239 -169 -287 -45 -20 -69 -24 -160 -23 -60 0 -108 -3 -108 -7 0 -24 159 -27 239 -4 74 20 129 59 168 118 44 65 56 116 49 201 -4 38 -8 111 -9 160 -3 93 -11 135 -28 135 -11 0 -11 -14 1 -64 5 -22 6 -52 3 -68 l-5 -27 -47 46 c-25 26 -77 67 -115 91 -109 71 -146 108 -146 147 0 52 38 77 114 73 60 -3 64 -6 51 -40 -4 -11 -3 -18 4 -18 7 0 20 19 30 43 73 166 81 180 96 167 17 -14 20 -75 5 -85 -15 -9 -12 -25 4 -25 29 0 36 85 10 125 -28 43 -46 31 -85 -58z" fill="#0000ff"/>
<path d="M684 995 c5 -27 2 -44 -14 -70 -17 -28 -19 -35 -7 -35 33 0 59 78 41 124 -12 31 -26 16 -20 -19z" fill="#0000ff"/>
<path d="M395 910 c-8 -14 -7 -15 23 -25 20 -6 23 -4 20 11 -4 22 -33 31 -43 14z" fill="#0000ff"/>
<path d="M707 876 c-9 -20 -33 -45 -57 -58 -47 -27 -51 -40 -12 -36 24 3 29 -2 45 -47 16 -45 17 -106 5 -175 -2 -8 2 -16 7 -18 28 -9 32 141 6 213 l-18 50 23 25 c24 27 42 80 27 80 -5 0 -17 -16 -26 -34z" fill="#0000ff"/>
<path d="M31 720 c-6 -28 -11 -68 -11 -89 0 -38 22 -124 39 -151 19 -29 23 0 6 50 -19 58 -23 122 -12 193 11 64 -8 62 -22 -3z" fill="#0000ff"/>
<path d="M77 703 c-14 -14 -6 -115 13 -167 l21 -55 -36 -33 c-20 -19 -38 -47 -41 -65 -9 -44 9 -42 25 3 8 22 26 43 47 56 19 11 34 23 34 28 0 4 -10 29 -22 56 -15 35 -22 69 -22 117 0 63 -4 76 -19 60z" fill="#0000ff"/>
<path d="M346 441 c-7 -10 33 -23 46 -15 5 3 6 10 3 15 -8 12 -42 12 -49 0z" fill="#0000ff"/>
<path d="M75 354 c-16 -25 -17 -95 -2 -111 15 -14 24 10 14 36 -9 23 -7 34 6 55 9 14 17 30 17 36 0 18 -17 10 -35 -16z" fill="#0000ff"/>
</g>
</svg>